<?xml version="1.0" encoding="utf-8"?><svg viewBox="0 0 24 22" xmlns="http://www.w3.org/2000/svg" xmlns:xlink="http://www.w3.org/1999/xlink"><style>:root>svg{display:none}:root>svg:target{display:block}</style><svg viewBox="0 0 18 20" id="svg--arrow" xmlns="http://www.w3.org/2000/svg"><path d="M.303 10.895L9 19.592l8.697-8.697-1.668-1.678-5.817 5.826V.408H7.788v14.635L1.962 9.217l-1.66 1.678z"/></svg><svg viewBox="0 0 24 16" id="svg--burger" xmlns="http://www.w3.org/2000/svg"><path d="M24 16H0v-2.667h24V16zm0-6.667H0V6.667h24v2.666zm0-6.666H0V0h24v2.667z"/></svg><svg viewBox="0 0 22 22" id="svg--close" xmlns="http://www.w3.org/2000/svg"><path fill-rule="evenodd" clip-rule="evenodd" d="M20.06 20.06a1.5 1.5 0 01-2.12 0L1.06 3.183a1.5 1.5 0 112.122-2.121l16.879 16.878a1.5 1.5 0 010 2.122z"/><path fill-rule="evenodd" clip-rule="evenodd" d="M1.06 20.06a1.5 1.5 0 010-2.12L17.94 1.06a1.5 1.5 0 112.12 2.122L3.183 20.061a1.5 1.5 0 01-2.121 0z"/></svg><svg viewBox="0 0 20 18" id="svg--telegram" xmlns="http://www.w3.org/2000/svg"><path d="M1.226 7.904L13.14 2.858C14.316 2.332 18.305.65 18.305.65s1.84-.736 1.687 1.051c-.051.736-.46 3.312-.87 6.097l-1.277 8.253s-.103 1.209-.972 1.419c-.87.21-2.3-.736-2.556-.946-.205-.158-3.835-2.523-5.165-3.68-.358-.315-.767-.946.051-1.682 1.841-1.734 4.04-3.89 5.37-5.256.613-.63 1.226-2.102-1.33-.315l-7.21 4.993s-.818.526-2.352.053A104.296 104.296 0 01.357 9.533s-1.227-.788.87-1.63z"/></svg><svg viewBox="0 0 21 21" id="svg--whatsap" xmlns="http://www.w3.org/2000/svg"><path fill-rule="evenodd" clip-rule="evenodd" d="M17.486 3.007A9.896 9.896 0 0014.256.85 9.934 9.934 0 0010.443.1C4.953.1.485 4.546.483 10.01c0 1.747.458 3.452 1.329 4.955L.4 20.1l5.279-1.379a10 10 0 004.759 1.207h.004c5.488 0 9.956-4.446 9.958-9.91a9.816 9.816 0 00-2.914-7.011zm-4.204 8.272c.228.083 1.45.681 1.7.806l.136.066c.173.084.291.14.341.224.062.104.062.6-.145 1.178-.207.579-1.201 1.106-1.68 1.177-.429.063-.971.09-1.567-.098a14.73 14.73 0 01-1.419-.522c-2.335-1.004-3.912-3.257-4.208-3.68l-.042-.06-.004-.004c-.135-.18-1.012-1.35-1.012-2.558 0-1.14.562-1.738.821-2.013l.05-.052a.916.916 0 01.664-.31c.158 0 .317.003.476.01h.054c.146-.002.327-.003.505.422l.28.674c.212.516.446 1.082.487 1.165.064.124.105.269.021.434a9.404 9.404 0 00-.035.072c-.062.126-.108.218-.213.341l-.127.152c-.086.104-.171.208-.246.282-.125.124-.255.257-.11.506.146.248.645 1.058 1.385 1.715a6.434 6.434 0 001.837 1.156c.068.029.123.053.164.073.248.124.394.104.539-.062.145-.165.622-.723.789-.97.166-.248.331-.207.559-.124z"/></svg></svg>