<svg width="22" height="22" viewBox="0 0 22 22" xmlns="http://www.w3.org/2000/svg">
    <path fill-rule="evenodd" clip-rule="evenodd"
        d="M20.0607 20.0607C19.4749 20.6464 18.5251 20.6464 17.9394 20.0607L1.06068 3.18198C0.474891 2.59619 0.474891 1.64645 1.06068 1.06066C1.64646 0.474874 2.59621 0.474874 3.182 1.06066L20.0607 17.9393C20.6465 18.5251 20.6465 19.4749 20.0607 20.0607Z" />
    <path fill-rule="evenodd" clip-rule="evenodd"
        d="M1.06068 20.0607C0.474891 19.4749 0.474892 18.5251 1.06068 17.9394L17.9394 1.06068C18.5251 0.474891 19.4749 0.474891 20.0607 1.06068C20.6465 1.64646 20.6465 2.59621 20.0607 3.182L3.182 20.0607C2.59621 20.6465 1.64646 20.6465 1.06068 20.0607Z" />
</svg>