<svg width="20" height="18" viewBox="0 0 20 18" xmlns="http://www.w3.org/2000/svg">
    <path
        d="M1.22615 7.90355L13.1395 2.85766C14.3155 2.33205 18.3036 0.650082 18.3036 0.650082C18.3036 0.650082 20.1443 -0.0857776 19.9909 1.70131C19.9398 2.43717 19.5307 5.01267 19.1217 7.79843L17.8435 16.0506C17.8435 16.0506 17.7412 17.2595 16.872 17.4697C16.0028 17.68 14.5711 16.7339 14.3155 16.5236C14.111 16.3659 10.4807 14.0007 9.15133 12.8443C8.79341 12.529 8.38437 11.8982 9.20246 11.1624C11.0431 9.42783 13.2417 7.27281 14.5711 5.90622C15.1847 5.27548 15.7982 3.80376 13.2417 5.59085L6.03238 10.5842C6.03238 10.5842 5.2143 11.1098 3.6804 10.6367C2.14649 10.1637 0.356936 9.53295 0.356936 9.53295C0.356936 9.53295 -0.870188 8.74453 1.22615 7.90355Z"
         />
</svg>