<svg width="21" height="21" viewBox="0 0 21 21" xmlns="http://www.w3.org/2000/svg">
    <path fill-rule="evenodd" clip-rule="evenodd"
        d="M17.4858 3.00686C16.5633 2.08269 15.4657 1.34989 14.2566 0.850919C13.0475 0.351949 11.751 0.096727 10.442 0.100038C4.95342 0.100038 0.485315 4.54582 0.483097 10.0106C0.483097 11.7571 0.941221 13.4617 1.81199 14.9653L0.399902 20.1L5.67887 18.7211C7.13909 19.5122 8.77504 19.9271 10.4376 19.9278H10.442C15.9295 19.9278 20.3976 15.482 20.3999 10.0172C20.4036 8.71504 20.148 7.42503 19.6479 6.22176C19.1477 5.01848 18.4129 3.92579 17.4858 3.00686ZM13.2817 11.2791C13.5102 11.3619 14.7326 11.9603 14.9822 12.085C15.0304 12.1091 15.0756 12.1309 15.1176 12.1511C15.2909 12.2347 15.4092 12.2918 15.4592 12.3754C15.5213 12.4791 15.5213 12.9748 15.3139 13.5533C15.1065 14.1318 14.1126 14.6595 13.6345 14.7302C13.2052 14.7931 12.6628 14.8207 12.0671 14.6319C11.7066 14.5171 11.2429 14.3648 10.6484 14.1097C8.31345 13.1058 6.73579 10.8526 6.44032 10.4306C6.41995 10.4016 6.40568 10.3812 6.39767 10.3705L6.39442 10.3662C6.25871 10.1854 5.38159 9.01684 5.38159 7.80813C5.38159 6.66761 5.94399 6.07038 6.20348 5.79482C6.22129 5.77591 6.23768 5.75851 6.25236 5.74255C6.33575 5.64826 6.43781 5.57213 6.55215 5.51894C6.66649 5.46575 6.79063 5.43664 6.9168 5.43344C7.07547 5.43287 7.23414 5.43581 7.39268 5.44227C7.41016 5.44303 7.42833 5.44286 7.44709 5.44269C7.59258 5.44137 7.7739 5.43972 7.95174 5.8651C8.0213 6.03133 8.12355 6.27887 8.23107 6.53921C8.44419 7.0552 8.67806 7.62144 8.71935 7.70435C8.78258 7.828 8.82362 7.97262 8.74043 8.13822C8.72781 8.16334 8.71616 8.18701 8.70505 8.20959C8.64287 8.33593 8.59735 8.42843 8.49195 8.55112C8.45054 8.59932 8.40778 8.65133 8.36501 8.70334C8.27947 8.80736 8.19393 8.91139 8.11924 8.98499C7.9939 9.10863 7.86411 9.24222 8.00943 9.49062C8.15474 9.73902 8.6539 10.5493 9.39378 11.2062C10.1894 11.9122 10.881 12.2106 11.231 12.3616C11.2992 12.391 11.3544 12.4148 11.3949 12.435C11.6434 12.5586 11.7887 12.5387 11.934 12.3731C12.0793 12.2075 12.5563 11.65 12.7227 11.4027C12.8891 11.1554 13.0543 11.1963 13.2817 11.2791Z"
    />
</svg>